<svg width="150" height="48" viewBox="0 0 150 48" fill="none" xmlns="http://www.w3.org/2000/svg">
<path d="M4 15.1668C4 12.379 6.2599 10.1191 9.04762 10.1191H26.7143C29.502 10.1191 31.7619 12.379 31.7619 15.1668V32.8334C31.7619 35.6212 29.502 37.881 26.7143 37.881H9.04762C6.2599 37.881 4 35.6212 4 32.8334V15.1668Z" fill="#CDDFCC"/>
<path d="M26.353 7.52941H9.88243C9.23268 7.52941 8.70596 7.00269 8.70596 6.35294V5.17647C8.70596 4.52672 9.23268 4 9.88243 4H26.353C27.0027 4 27.5295 4.52672 27.5295 5.17647V6.35294C27.5295 7.00269 27.0027 7.52941 26.353 7.52941Z" fill="#52A350"/>
<path d="M26.353 44H9.88243C9.23268 44 8.70596 43.4733 8.70596 42.8235V41.6471C8.70596 40.9973 9.23268 40.4706 9.88243 40.4706H26.353C27.0027 40.4706 27.5295 40.9973 27.5295 41.6471V42.8235C27.5295 43.4733 27.0027 44 26.353 44Z" fill="#52A350"/>
<path fill-rule="evenodd" clip-rule="evenodd" d="M26.7143 12.6429H9.04762C7.65376 12.6429 6.52381 13.7728 6.52381 15.1667V32.8333C6.52381 34.2272 7.65376 35.3571 9.04762 35.3571H26.7143C28.1081 35.3571 29.2381 34.2272 29.2381 32.8333V15.1667C29.2381 13.7728 28.1081 12.6429 26.7143 12.6429ZM9.04762 10.1191C6.2599 10.1191 4 12.3789 4 15.1667V32.8333C4 35.6211 6.2599 37.881 9.04762 37.881H26.7143C29.502 37.881 31.7619 35.6211 31.7619 32.8333V15.1667C31.7619 12.3789 29.502 10.1191 26.7143 10.1191H9.04762Z" fill="#52A350"/>
<path fill-rule="evenodd" clip-rule="evenodd" d="M25.17 21.2421C25.5465 21.6125 25.5465 22.2129 25.17 22.5833L17.5986 30.0317C17.2221 30.4021 16.6117 30.4021 16.2352 30.0317L10.5919 24.4801C10.2154 24.1098 10.2154 23.5093 10.5919 23.1389L12.637 21.127C13.0135 20.7566 13.6239 20.7566 14.0004 21.127L16.9169 23.9961L21.7615 19.2302C22.138 18.8598 22.7484 18.8598 23.1249 19.2302L25.17 21.2421Z" fill="#52A350"/>
<path fill-rule="evenodd" clip-rule="evenodd" d="M25.17 21.2421C25.5465 21.6125 25.5465 22.2129 25.17 22.5833L17.5986 30.0317C17.2221 30.4021 16.6117 30.4021 16.2352 30.0317L10.5919 24.4801C10.2154 24.1098 10.2154 23.5093 10.5919 23.1389L12.637 21.127C13.0135 20.7566 13.6239 20.7566 14.0004 21.127L16.9169 23.9961L21.7615 19.2302C22.138 18.8598 22.7484 18.8598 23.1249 19.2302L25.17 21.2421Z" fill="#52A350"/>
<path d="M47.8437 32.4871V19.296H43.7619V15.6373H56.2063V19.296H52.2739V32.4871H47.8437Z" fill="#332E32"/>
<path d="M61.7817 32.7858C60.3547 32.7858 59.1849 32.5618 58.2723 32.1138C57.3597 31.6658 56.6794 30.9523 56.2314 29.9733C55.8 28.9944 55.5843 27.725 55.5843 26.1653C55.5843 24.6222 55.8083 23.3778 56.2563 22.432C56.7043 21.4862 57.3846 20.7893 58.2972 20.3413C59.2264 19.8933 60.3879 19.6693 61.7817 19.6693C63.1754 19.6693 64.3286 19.8933 65.2412 20.3413C66.1538 20.7893 66.8341 21.4862 67.2821 22.432C67.7301 23.3778 67.9541 24.6222 67.9541 26.1653C67.9541 27.725 67.7384 28.9944 67.307 29.9733C66.8756 30.9523 66.2036 31.6658 65.291 32.1138C64.3784 32.5618 63.2086 32.7858 61.7817 32.7858ZM61.7817 29.2765C62.296 29.2765 62.6777 29.1769 62.9265 28.9778C63.192 28.7787 63.3745 28.4468 63.4741 27.9822C63.5737 27.5176 63.6234 26.912 63.6234 26.1653C63.6234 25.4021 63.5654 24.8048 63.4492 24.3733C63.3331 23.9419 63.1422 23.635 62.8768 23.4525C62.6279 23.2533 62.2628 23.1538 61.7817 23.1538C61.3005 23.1538 60.9271 23.2533 60.6617 23.4525C60.3962 23.635 60.2054 23.9502 60.0892 24.3982C59.9731 24.8296 59.915 25.4187 59.915 26.1653C59.915 26.912 59.9648 27.5176 60.0643 27.9822C60.1639 28.4468 60.3464 28.7787 60.6119 28.9778C60.8774 29.1769 61.2673 29.2765 61.7817 29.2765Z" fill="#332E32"/>
<path d="M69.7187 32.4871V15.6373H76.4387C77.8159 15.6373 78.9856 15.8116 79.948 16.16C80.9104 16.5085 81.6819 17.0311 82.2627 17.728C82.86 18.4083 83.2914 19.2628 83.5569 20.2916C83.8224 21.3037 83.9551 22.4735 83.9551 23.8009C83.9551 25.1449 83.8307 26.3479 83.5818 27.4098C83.3329 28.4717 82.9264 29.3843 82.3622 30.1476C81.7981 30.9108 81.0431 31.4916 80.0973 31.8898C79.1516 32.288 77.9901 32.4871 76.6129 32.4871H69.7187ZM74.1489 28.8285H76.2893C76.9862 28.8285 77.5421 28.704 77.9569 28.4551C78.3883 28.2062 78.7119 27.8578 78.9276 27.4098C79.1433 26.9618 79.2843 26.4308 79.3507 25.8169C79.4171 25.203 79.4502 24.531 79.4502 23.8009C79.4502 23.104 79.4088 22.4818 79.3258 21.9342C79.2428 21.3701 79.0935 20.8889 78.8778 20.4907C78.6621 20.0925 78.3468 19.7938 77.932 19.5947C77.5172 19.3956 76.9696 19.296 76.2893 19.296H74.1489V28.8285Z" fill="#332E32"/>
<path d="M91.556 32.7858C90.129 32.7858 88.9592 32.5618 88.0466 32.1138C87.134 31.6658 86.4537 30.9523 86.0057 29.9733C85.5743 28.9944 85.3586 27.725 85.3586 26.1653C85.3586 24.6222 85.5826 23.3778 86.0306 22.432C86.4786 21.4862 87.1589 20.7893 88.0715 20.3413C89.0007 19.8933 90.1622 19.6693 91.556 19.6693C92.9497 19.6693 94.1029 19.8933 95.0155 20.3413C95.9281 20.7893 96.6084 21.4862 97.0564 22.432C97.5044 23.3778 97.7284 24.6222 97.7284 26.1653C97.7284 27.725 97.5127 28.9944 97.0813 29.9733C96.6499 30.9523 95.9779 31.6658 95.0653 32.1138C94.1527 32.5618 92.9829 32.7858 91.556 32.7858ZM91.556 29.2765C92.0703 29.2765 92.452 29.1769 92.7008 28.9778C92.9663 28.7787 93.1488 28.4468 93.2484 27.9822C93.348 27.5176 93.3977 26.912 93.3977 26.1653C93.3977 25.4021 93.3397 24.8048 93.2235 24.3733C93.1074 23.9419 92.9165 23.635 92.6511 23.4525C92.4022 23.2533 92.0371 23.1538 91.556 23.1538C91.0748 23.1538 90.7014 23.2533 90.436 23.4525C90.1705 23.635 89.9797 23.9502 89.8635 24.3982C89.7474 24.8296 89.6893 25.4187 89.6893 26.1653C89.6893 26.912 89.7391 27.5176 89.8386 27.9822C89.9382 28.4468 90.1207 28.7787 90.3862 28.9778C90.6517 29.1769 91.0416 29.2765 91.556 29.2765Z" fill="#332E32"/>
<path d="M105.035 32.4871V15.6373H109.465V28.8285H115.637V32.4871H105.035Z" fill="#332E32"/>
<path d="M116.99 32.4871V19.968H121.246V32.4871H116.99ZM116.965 18.4747V15.2142H121.271V18.4747H116.965Z" fill="#332E32"/>
<path d="M128.359 32.7858C127.679 32.7858 126.998 32.7526 126.318 32.6862C125.654 32.6199 125.041 32.5452 124.476 32.4622C123.929 32.3627 123.481 32.2714 123.132 32.1885L123.257 29.1769C123.688 29.2267 124.178 29.2848 124.725 29.3511C125.289 29.4175 125.837 29.4756 126.368 29.5253C126.915 29.5585 127.363 29.5751 127.712 29.5751C128.094 29.5751 128.401 29.5502 128.633 29.5005C128.882 29.4507 129.064 29.3594 129.18 29.2267C129.297 29.0939 129.355 28.9197 129.355 28.704C129.355 28.5215 129.288 28.3805 129.155 28.2809C129.039 28.1813 128.815 28.0901 128.483 28.0071C128.152 27.9242 127.662 27.8412 127.015 27.7582C126.086 27.6255 125.323 27.4264 124.725 27.1609C124.145 26.8788 123.713 26.4806 123.431 25.9662C123.166 25.4519 123.033 24.7716 123.033 23.9253C123.033 22.8136 123.265 21.9508 123.73 21.3369C124.194 20.723 124.817 20.2916 125.596 20.0427C126.393 19.7938 127.272 19.6693 128.235 19.6693C128.898 19.6693 129.554 19.7025 130.201 19.7689C130.865 19.8187 131.47 19.8933 132.018 19.9929C132.582 20.0759 133.038 20.1588 133.387 20.2418L133.262 23.3529C132.831 23.3031 132.333 23.2533 131.769 23.2036C131.205 23.1372 130.657 23.0874 130.126 23.0542C129.595 23.021 129.147 23.0045 128.782 23.0045C128.483 23.0045 128.218 23.0293 127.986 23.0791C127.77 23.1289 127.604 23.2119 127.488 23.328C127.372 23.4276 127.314 23.5769 127.314 23.776C127.314 23.9253 127.363 24.0498 127.463 24.1493C127.579 24.2489 127.795 24.3402 128.11 24.4231C128.425 24.4895 128.89 24.5642 129.504 24.6471C130.516 24.7799 131.329 24.9873 131.943 25.2693C132.557 25.5514 132.997 25.9579 133.262 26.4889C133.528 27.0033 133.66 27.7002 133.66 28.5796C133.66 29.6083 133.453 30.4296 133.038 31.0436C132.64 31.6575 132.043 32.1055 131.246 32.3876C130.466 32.653 129.504 32.7858 128.359 32.7858Z" fill="#332E32"/>
<path d="M139.968 32.7858C139.023 32.7858 138.251 32.6613 137.654 32.4125C137.056 32.147 136.625 31.6907 136.359 31.0436C136.094 30.3799 135.961 29.459 135.961 28.2809V23.4525H134.717V19.968H135.961V17.0062H140.242V19.968H142.93V23.4525H140.242V27.2356C140.242 27.7168 140.267 28.0984 140.317 28.3805C140.367 28.6459 140.474 28.8368 140.64 28.9529C140.806 29.0525 141.055 29.1022 141.387 29.1022C141.47 29.1022 141.611 29.1022 141.81 29.1022C142.009 29.0856 142.217 29.0773 142.432 29.0773C142.648 29.0608 142.806 29.0442 142.905 29.0276L142.98 32.4125C142.714 32.4622 142.391 32.512 142.009 32.5618C141.644 32.6282 141.279 32.6779 140.914 32.7111C140.549 32.7609 140.234 32.7858 139.968 32.7858Z" fill="#332E32"/>
</svg>
